<?xml version="1.0" encoding="UTF-8"?>
<svg xmlns="http://www.w3.org/2000/svg" width="1000" height="470"
     viewBox="0 0 1000 470" role="img" aria-labelledby="title desc">
  <title id="title">BCH decode overhead of kernel-backed execution</title>
  <desc id="desc">Vector figure generated from the checked experiment artifacts.</desc>
  <defs>
    <marker id="arrow" markerWidth="9" markerHeight="7" refX="8" refY="3.5" orient="auto">
      <polygon points="0 0, 9 3.5, 0 7" fill="#687386"/>
    </marker>
    <style>
      text { font-family: "Liberation Sans", "DejaVu Sans", Arial, sans-serif; }
    </style>
  </defs>
  <rect width="100%" height="100%" fill="white"/>
  <text x="70.00" y="35.00" text-anchor="start" font-size="13" font-weight="700" fill="#202938" style="">(a)</text>
  <text x="104.00" y="35.00" text-anchor="start" font-size="13" font-weight="600" fill="#202938" style="">BCH m=13, t=4</text>
  <line x1="70.00" y1="375.00" x2="490.00" y2="375.00" stroke="#D9DEE7" stroke-width="0.8" opacity="1"/>
  <text x="62.00" y="379.00" text-anchor="end" font-size="10" font-weight="400" fill="#687386" style="">-10</text>
  <line x1="70.00" y1="278.12" x2="490.00" y2="278.12" stroke="#D9DEE7" stroke-width="0.8" opacity="1"/>
  <text x="62.00" y="282.12" text-anchor="end" font-size="10" font-weight="400" fill="#687386" style="">-5</text>
  <line x1="70.00" y1="181.25" x2="490.00" y2="181.25" stroke="#D9DEE7" stroke-width="0.8" opacity="1"/>
  <text x="62.00" y="185.25" text-anchor="end" font-size="10" font-weight="400" fill="#687386" style="">0</text>
  <line x1="70.00" y1="84.38" x2="490.00" y2="84.38" stroke="#D9DEE7" stroke-width="0.8" opacity="1"/>
  <text x="62.00" y="88.38" text-anchor="end" font-size="10" font-weight="400" fill="#687386" style="">5</text>
  <line x1="70.00" y1="65.00" x2="70.00" y2="375.00" stroke="#202938" stroke-width="1" opacity="1"/>
  <line x1="70.00" y1="375.00" x2="490.00" y2="375.00" stroke="#202938" stroke-width="1" opacity="1"/>
  <line x1="70.00" y1="181.25" x2="490.00" y2="181.25" stroke="#687386" stroke-width="1.1" opacity="1"/>
  <text x="22.00" y="220.00" text-anchor="middle" font-size="11" font-weight="400" fill="#687386" transform="rotate(-90 22.00 220.00)" style="">VKSO vs. same source (%)</text>
  <line x1="112.00" y1="195.99" x2="112.00" y2="199.46" stroke="#16877A" stroke-width="1.0" opacity="1"/>
  <line x1="108.50" y1="195.99" x2="115.50" y2="195.99" stroke="#16877A" stroke-width="1.0" opacity="1"/>
  <line x1="108.50" y1="199.46" x2="115.50" y2="199.46" stroke="#16877A" stroke-width="1.0" opacity="1"/>
  <circle cx="112.00" cy="196.88" r="3.70" fill="#16877A" stroke="#FFFFFF" stroke-width="1.2"/>
  <line x1="196.00" y1="201.32" x2="196.00" y2="237.50" stroke="#16877A" stroke-width="1.0" opacity="1"/>
  <line x1="192.50" y1="201.32" x2="199.50" y2="201.32" stroke="#16877A" stroke-width="1.0" opacity="1"/>
  <line x1="192.50" y1="237.50" x2="199.50" y2="237.50" stroke="#16877A" stroke-width="1.0" opacity="1"/>
  <circle cx="196.00" cy="222.70" r="3.70" fill="#16877A" stroke="#FFFFFF" stroke-width="1.2"/>
  <line x1="280.00" y1="204.62" x2="280.00" y2="246.58" stroke="#16877A" stroke-width="1.0" opacity="1"/>
  <line x1="276.50" y1="204.62" x2="283.50" y2="204.62" stroke="#16877A" stroke-width="1.0" opacity="1"/>
  <line x1="276.50" y1="246.58" x2="283.50" y2="246.58" stroke="#16877A" stroke-width="1.0" opacity="1"/>
  <circle cx="280.00" cy="235.80" r="3.70" fill="#16877A" stroke="#FFFFFF" stroke-width="1.2"/>
  <line x1="364.00" y1="187.83" x2="364.00" y2="219.37" stroke="#16877A" stroke-width="1.0" opacity="1"/>
  <line x1="360.50" y1="187.83" x2="367.50" y2="187.83" stroke="#16877A" stroke-width="1.0" opacity="1"/>
  <line x1="360.50" y1="219.37" x2="367.50" y2="219.37" stroke="#16877A" stroke-width="1.0" opacity="1"/>
  <circle cx="364.00" cy="196.08" r="3.70" fill="#16877A" stroke="#FFFFFF" stroke-width="1.2"/>
  <line x1="448.00" y1="191.28" x2="448.00" y2="213.88" stroke="#16877A" stroke-width="1.0" opacity="1"/>
  <line x1="444.50" y1="191.28" x2="451.50" y2="191.28" stroke="#16877A" stroke-width="1.0" opacity="1"/>
  <line x1="444.50" y1="213.88" x2="451.50" y2="213.88" stroke="#16877A" stroke-width="1.0" opacity="1"/>
  <circle cx="448.00" cy="204.88" r="3.70" fill="#16877A" stroke="#FFFFFF" stroke-width="1.2"/>
  <polyline points="112.00,196.88 196.00,222.70 280.00,235.80 364.00,196.08 448.00,204.88" fill="none" stroke="#16877A" stroke-width="2" stroke-linejoin="round" stroke-linecap="round"/>
  <line x1="112.00" y1="290.59" x2="112.00" y2="386.50" stroke="#D97732" stroke-width="1.0" opacity="1"/>
  <line x1="108.50" y1="290.59" x2="115.50" y2="290.59" stroke="#D97732" stroke-width="1.0" opacity="1"/>
  <line x1="108.50" y1="386.50" x2="115.50" y2="386.50" stroke="#D97732" stroke-width="1.0" opacity="1"/>
  <circle cx="112.00" cy="328.19" r="3.70" fill="#D97732" stroke="#FFFFFF" stroke-width="1.2"/>
  <line x1="196.00" y1="188.15" x2="196.00" y2="277.22" stroke="#D97732" stroke-width="1.0" opacity="1"/>
  <line x1="192.50" y1="188.15" x2="199.50" y2="188.15" stroke="#D97732" stroke-width="1.0" opacity="1"/>
  <line x1="192.50" y1="277.22" x2="199.50" y2="277.22" stroke="#D97732" stroke-width="1.0" opacity="1"/>
  <circle cx="196.00" cy="239.20" r="3.70" fill="#D97732" stroke="#FFFFFF" stroke-width="1.2"/>
  <line x1="280.00" y1="196.81" x2="280.00" y2="279.16" stroke="#D97732" stroke-width="1.0" opacity="1"/>
  <line x1="276.50" y1="196.81" x2="283.50" y2="196.81" stroke="#D97732" stroke-width="1.0" opacity="1"/>
  <line x1="276.50" y1="279.16" x2="283.50" y2="279.16" stroke="#D97732" stroke-width="1.0" opacity="1"/>
  <circle cx="280.00" cy="242.29" r="3.70" fill="#D97732" stroke="#FFFFFF" stroke-width="1.2"/>
  <line x1="364.00" y1="166.63" x2="364.00" y2="223.28" stroke="#D97732" stroke-width="1.0" opacity="1"/>
  <line x1="360.50" y1="166.63" x2="367.50" y2="166.63" stroke="#D97732" stroke-width="1.0" opacity="1"/>
  <line x1="360.50" y1="223.28" x2="367.50" y2="223.28" stroke="#D97732" stroke-width="1.0" opacity="1"/>
  <circle cx="364.00" cy="194.21" r="3.70" fill="#D97732" stroke="#FFFFFF" stroke-width="1.2"/>
  <line x1="448.00" y1="141.82" x2="448.00" y2="175.48" stroke="#D97732" stroke-width="1.0" opacity="1"/>
  <line x1="444.50" y1="141.82" x2="451.50" y2="141.82" stroke="#D97732" stroke-width="1.0" opacity="1"/>
  <line x1="444.50" y1="175.48" x2="451.50" y2="175.48" stroke="#D97732" stroke-width="1.0" opacity="1"/>
  <circle cx="448.00" cy="158.37" r="3.70" fill="#D97732" stroke="#FFFFFF" stroke-width="1.2"/>
  <polyline points="112.00,328.19 196.00,239.20 280.00,242.29 364.00,194.21 448.00,158.37" fill="none" stroke="#D97732" stroke-width="2" stroke-linejoin="round" stroke-linecap="round"/>
  <text x="112.00" y="394.00" text-anchor="middle" font-size="10" font-weight="400" fill="#687386" style="">0</text>
  <text x="196.00" y="394.00" text-anchor="middle" font-size="10" font-weight="400" fill="#687386" style="">1</text>
  <text x="280.00" y="394.00" text-anchor="middle" font-size="10" font-weight="400" fill="#687386" style="">2</text>
  <text x="364.00" y="394.00" text-anchor="middle" font-size="10" font-weight="400" fill="#687386" style="">3</text>
  <text x="448.00" y="394.00" text-anchor="middle" font-size="10" font-weight="400" fill="#687386" style="">4</text>
  <text x="280.00" y="415.00" text-anchor="middle" font-size="10.5" font-weight="400" fill="#687386" style="">injected errors</text>
  <text x="560.00" y="35.00" text-anchor="start" font-size="13" font-weight="700" fill="#202938" style="">(b)</text>
  <text x="594.00" y="35.00" text-anchor="start" font-size="13" font-weight="600" fill="#202938" style="">BCH m=13, t=8</text>
  <line x1="560.00" y1="346.82" x2="980.00" y2="346.82" stroke="#D9DEE7" stroke-width="0.8" opacity="1"/>
  <text x="552.00" y="350.82" text-anchor="end" font-size="10" font-weight="400" fill="#687386" style="">0</text>
  <line x1="560.00" y1="299.85" x2="980.00" y2="299.85" stroke="#D9DEE7" stroke-width="0.8" opacity="1"/>
  <text x="552.00" y="303.85" text-anchor="end" font-size="10" font-weight="400" fill="#687386" style="">5</text>
  <line x1="560.00" y1="252.88" x2="980.00" y2="252.88" stroke="#D9DEE7" stroke-width="0.8" opacity="1"/>
  <text x="552.00" y="256.88" text-anchor="end" font-size="10" font-weight="400" fill="#687386" style="">10</text>
  <line x1="560.00" y1="205.91" x2="980.00" y2="205.91" stroke="#D9DEE7" stroke-width="0.8" opacity="1"/>
  <text x="552.00" y="209.91" text-anchor="end" font-size="10" font-weight="400" fill="#687386" style="">15</text>
  <line x1="560.00" y1="158.94" x2="980.00" y2="158.94" stroke="#D9DEE7" stroke-width="0.8" opacity="1"/>
  <text x="552.00" y="162.94" text-anchor="end" font-size="10" font-weight="400" fill="#687386" style="">20</text>
  <line x1="560.00" y1="111.97" x2="980.00" y2="111.97" stroke="#D9DEE7" stroke-width="0.8" opacity="1"/>
  <text x="552.00" y="115.97" text-anchor="end" font-size="10" font-weight="400" fill="#687386" style="">25</text>
  <line x1="560.00" y1="65.00" x2="980.00" y2="65.00" stroke="#D9DEE7" stroke-width="0.8" opacity="1"/>
  <text x="552.00" y="69.00" text-anchor="end" font-size="10" font-weight="400" fill="#687386" style="">30</text>
  <line x1="560.00" y1="65.00" x2="560.00" y2="375.00" stroke="#202938" stroke-width="1" opacity="1"/>
  <line x1="560.00" y1="375.00" x2="980.00" y2="375.00" stroke="#202938" stroke-width="1" opacity="1"/>
  <line x1="560.00" y1="346.82" x2="980.00" y2="346.82" stroke="#687386" stroke-width="1.1" opacity="1"/>
  <text x="512.00" y="220.00" text-anchor="middle" font-size="11" font-weight="400" fill="#687386" transform="rotate(-90 512.00 220.00)" style="">VKSO vs. same source (%)</text>
  <line x1="583.33" y1="342.88" x2="583.33" y2="345.52" stroke="#16877A" stroke-width="1.0" opacity="1"/>
  <line x1="579.83" y1="342.88" x2="586.83" y2="342.88" stroke="#16877A" stroke-width="1.0" opacity="1"/>
  <line x1="579.83" y1="345.52" x2="586.83" y2="345.52" stroke="#16877A" stroke-width="1.0" opacity="1"/>
  <circle cx="583.33" cy="343.64" r="3.70" fill="#16877A" stroke="#FFFFFF" stroke-width="1.2"/>
  <line x1="630.00" y1="292.88" x2="630.00" y2="328.28" stroke="#16877A" stroke-width="1.0" opacity="1"/>
  <line x1="626.50" y1="292.88" x2="633.50" y2="292.88" stroke="#16877A" stroke-width="1.0" opacity="1"/>
  <line x1="626.50" y1="328.28" x2="633.50" y2="328.28" stroke="#16877A" stroke-width="1.0" opacity="1"/>
  <circle cx="630.00" cy="314.41" r="3.70" fill="#16877A" stroke="#FFFFFF" stroke-width="1.2"/>
  <line x1="676.67" y1="290.75" x2="676.67" y2="320.64" stroke="#16877A" stroke-width="1.0" opacity="1"/>
  <line x1="673.17" y1="290.75" x2="680.17" y2="290.75" stroke="#16877A" stroke-width="1.0" opacity="1"/>
  <line x1="673.17" y1="320.64" x2="680.17" y2="320.64" stroke="#16877A" stroke-width="1.0" opacity="1"/>
  <circle cx="676.67" cy="310.60" r="3.70" fill="#16877A" stroke="#FFFFFF" stroke-width="1.2"/>
  <line x1="723.33" y1="309.79" x2="723.33" y2="334.64" stroke="#16877A" stroke-width="1.0" opacity="1"/>
  <line x1="719.83" y1="309.79" x2="726.83" y2="309.79" stroke="#16877A" stroke-width="1.0" opacity="1"/>
  <line x1="719.83" y1="334.64" x2="726.83" y2="334.64" stroke="#16877A" stroke-width="1.0" opacity="1"/>
  <circle cx="723.33" cy="323.56" r="3.70" fill="#16877A" stroke="#FFFFFF" stroke-width="1.2"/>
  <line x1="770.00" y1="312.18" x2="770.00" y2="341.74" stroke="#16877A" stroke-width="1.0" opacity="1"/>
  <line x1="766.50" y1="312.18" x2="773.50" y2="312.18" stroke="#16877A" stroke-width="1.0" opacity="1"/>
  <line x1="766.50" y1="341.74" x2="773.50" y2="341.74" stroke="#16877A" stroke-width="1.0" opacity="1"/>
  <circle cx="770.00" cy="324.72" r="3.70" fill="#16877A" stroke="#FFFFFF" stroke-width="1.2"/>
  <line x1="816.67" y1="292.84" x2="816.67" y2="313.96" stroke="#16877A" stroke-width="1.0" opacity="1"/>
  <line x1="813.17" y1="292.84" x2="820.17" y2="292.84" stroke="#16877A" stroke-width="1.0" opacity="1"/>
  <line x1="813.17" y1="313.96" x2="820.17" y2="313.96" stroke="#16877A" stroke-width="1.0" opacity="1"/>
  <circle cx="816.67" cy="305.50" r="3.70" fill="#16877A" stroke="#FFFFFF" stroke-width="1.2"/>
  <line x1="863.33" y1="288.62" x2="863.33" y2="308.85" stroke="#16877A" stroke-width="1.0" opacity="1"/>
  <line x1="859.83" y1="288.62" x2="866.83" y2="288.62" stroke="#16877A" stroke-width="1.0" opacity="1"/>
  <line x1="859.83" y1="308.85" x2="866.83" y2="308.85" stroke="#16877A" stroke-width="1.0" opacity="1"/>
  <circle cx="863.33" cy="299.54" r="3.70" fill="#16877A" stroke="#FFFFFF" stroke-width="1.2"/>
  <line x1="910.00" y1="289.66" x2="910.00" y2="308.23" stroke="#16877A" stroke-width="1.0" opacity="1"/>
  <line x1="906.50" y1="289.66" x2="913.50" y2="289.66" stroke="#16877A" stroke-width="1.0" opacity="1"/>
  <line x1="906.50" y1="308.23" x2="913.50" y2="308.23" stroke="#16877A" stroke-width="1.0" opacity="1"/>
  <circle cx="910.00" cy="299.59" r="3.70" fill="#16877A" stroke="#FFFFFF" stroke-width="1.2"/>
  <line x1="956.67" y1="284.75" x2="956.67" y2="305.54" stroke="#16877A" stroke-width="1.0" opacity="1"/>
  <line x1="953.17" y1="284.75" x2="960.17" y2="284.75" stroke="#16877A" stroke-width="1.0" opacity="1"/>
  <line x1="953.17" y1="305.54" x2="960.17" y2="305.54" stroke="#16877A" stroke-width="1.0" opacity="1"/>
  <circle cx="956.67" cy="295.68" r="3.70" fill="#16877A" stroke="#FFFFFF" stroke-width="1.2"/>
  <polyline points="583.33,343.64 630.00,314.41 676.67,310.60 723.33,323.56 770.00,324.72 816.67,305.50 863.33,299.54 910.00,299.59 956.67,295.68" fill="none" stroke="#16877A" stroke-width="2" stroke-linejoin="round" stroke-linecap="round"/>
  <line x1="583.33" y1="341.44" x2="583.33" y2="373.23" stroke="#D97732" stroke-width="1.0" opacity="1"/>
  <line x1="579.83" y1="341.44" x2="586.83" y2="341.44" stroke="#D97732" stroke-width="1.0" opacity="1"/>
  <line x1="579.83" y1="373.23" x2="586.83" y2="373.23" stroke="#D97732" stroke-width="1.0" opacity="1"/>
  <circle cx="583.33" cy="358.34" r="3.70" fill="#D97732" stroke="#FFFFFF" stroke-width="1.2"/>
  <line x1="630.00" y1="212.90" x2="630.00" y2="325.88" stroke="#D97732" stroke-width="1.0" opacity="1"/>
  <line x1="626.50" y1="212.90" x2="633.50" y2="212.90" stroke="#D97732" stroke-width="1.0" opacity="1"/>
  <line x1="626.50" y1="325.88" x2="633.50" y2="325.88" stroke="#D97732" stroke-width="1.0" opacity="1"/>
  <circle cx="630.00" cy="254.67" r="3.70" fill="#D97732" stroke="#FFFFFF" stroke-width="1.2"/>
  <line x1="676.67" y1="47.96" x2="676.67" y2="227.30" stroke="#D97732" stroke-width="1.0" opacity="1"/>
  <line x1="673.17" y1="47.96" x2="680.17" y2="47.96" stroke="#D97732" stroke-width="1.0" opacity="1"/>
  <line x1="673.17" y1="227.30" x2="680.17" y2="227.30" stroke="#D97732" stroke-width="1.0" opacity="1"/>
  <circle cx="676.67" cy="150.02" r="3.70" fill="#D97732" stroke="#FFFFFF" stroke-width="1.2"/>
  <line x1="723.33" y1="271.57" x2="723.33" y2="314.63" stroke="#D97732" stroke-width="1.0" opacity="1"/>
  <line x1="719.83" y1="271.57" x2="726.83" y2="271.57" stroke="#D97732" stroke-width="1.0" opacity="1"/>
  <line x1="719.83" y1="314.63" x2="726.83" y2="314.63" stroke="#D97732" stroke-width="1.0" opacity="1"/>
  <circle cx="723.33" cy="295.42" r="3.70" fill="#D97732" stroke="#FFFFFF" stroke-width="1.2"/>
  <line x1="770.00" y1="273.05" x2="770.00" y2="320.20" stroke="#D97732" stroke-width="1.0" opacity="1"/>
  <line x1="766.50" y1="273.05" x2="773.50" y2="273.05" stroke="#D97732" stroke-width="1.0" opacity="1"/>
  <line x1="766.50" y1="320.20" x2="773.50" y2="320.20" stroke="#D97732" stroke-width="1.0" opacity="1"/>
  <circle cx="770.00" cy="294.99" r="3.70" fill="#D97732" stroke="#FFFFFF" stroke-width="1.2"/>
  <line x1="816.67" y1="264.98" x2="816.67" y2="282.93" stroke="#D97732" stroke-width="1.0" opacity="1"/>
  <line x1="813.17" y1="264.98" x2="820.17" y2="264.98" stroke="#D97732" stroke-width="1.0" opacity="1"/>
  <line x1="813.17" y1="282.93" x2="820.17" y2="282.93" stroke="#D97732" stroke-width="1.0" opacity="1"/>
  <circle cx="816.67" cy="277.51" r="3.70" fill="#D97732" stroke="#FFFFFF" stroke-width="1.2"/>
  <line x1="863.33" y1="264.34" x2="863.33" y2="300.47" stroke="#D97732" stroke-width="1.0" opacity="1"/>
  <line x1="859.83" y1="264.34" x2="866.83" y2="264.34" stroke="#D97732" stroke-width="1.0" opacity="1"/>
  <line x1="859.83" y1="300.47" x2="866.83" y2="300.47" stroke="#D97732" stroke-width="1.0" opacity="1"/>
  <circle cx="863.33" cy="273.63" r="3.70" fill="#D97732" stroke="#FFFFFF" stroke-width="1.2"/>
  <line x1="910.00" y1="273.87" x2="910.00" y2="289.20" stroke="#D97732" stroke-width="1.0" opacity="1"/>
  <line x1="906.50" y1="273.87" x2="913.50" y2="273.87" stroke="#D97732" stroke-width="1.0" opacity="1"/>
  <line x1="906.50" y1="289.20" x2="913.50" y2="289.20" stroke="#D97732" stroke-width="1.0" opacity="1"/>
  <circle cx="910.00" cy="285.99" r="3.70" fill="#D97732" stroke="#FFFFFF" stroke-width="1.2"/>
  <line x1="956.67" y1="266.12" x2="956.67" y2="280.14" stroke="#D97732" stroke-width="1.0" opacity="1"/>
  <line x1="953.17" y1="266.12" x2="960.17" y2="266.12" stroke="#D97732" stroke-width="1.0" opacity="1"/>
  <line x1="953.17" y1="280.14" x2="960.17" y2="280.14" stroke="#D97732" stroke-width="1.0" opacity="1"/>
  <circle cx="956.67" cy="273.74" r="3.70" fill="#D97732" stroke="#FFFFFF" stroke-width="1.2"/>
  <polyline points="583.33,358.34 630.00,254.67 676.67,150.02 723.33,295.42 770.00,294.99 816.67,277.51 863.33,273.63 910.00,285.99 956.67,273.74" fill="none" stroke="#D97732" stroke-width="2" stroke-linejoin="round" stroke-linecap="round"/>
  <text x="583.33" y="394.00" text-anchor="middle" font-size="10" font-weight="400" fill="#687386" style="">0</text>
  <text x="630.00" y="394.00" text-anchor="middle" font-size="10" font-weight="400" fill="#687386" style="">1</text>
  <text x="676.67" y="394.00" text-anchor="middle" font-size="10" font-weight="400" fill="#687386" style="">2</text>
  <text x="723.33" y="394.00" text-anchor="middle" font-size="10" font-weight="400" fill="#687386" style="">3</text>
  <text x="770.00" y="394.00" text-anchor="middle" font-size="10" font-weight="400" fill="#687386" style="">4</text>
  <text x="816.67" y="394.00" text-anchor="middle" font-size="10" font-weight="400" fill="#687386" style="">5</text>
  <text x="863.33" y="394.00" text-anchor="middle" font-size="10" font-weight="400" fill="#687386" style="">6</text>
  <text x="910.00" y="394.00" text-anchor="middle" font-size="10" font-weight="400" fill="#687386" style="">7</text>
  <text x="956.67" y="394.00" text-anchor="middle" font-size="10" font-weight="400" fill="#687386" style="">8</text>
  <text x="770.00" y="415.00" text-anchor="middle" font-size="10.5" font-weight="400" fill="#687386" style="">injected errors</text>
  <line x1="350.00" y1="441.00" x2="370.00" y2="441.00" stroke="#16877A" stroke-width="2.5" opacity="1"/>
  <circle cx="360.00" cy="441.00" r="3.20" fill="#16877A" stroke="#FFFFFF" stroke-width="1.2"/>
  <text x="372.00" y="442.00" text-anchor="start" font-size="10.5" font-weight="400" fill="#202938" style="">Full decode</text>
  <line x1="515.00" y1="441.00" x2="535.00" y2="441.00" stroke="#D97732" stroke-width="2.5" opacity="1"/>
  <circle cx="525.00" cy="441.00" r="3.20" fill="#D97732" stroke="#FFFFFF" stroke-width="1.2"/>
  <text x="537.00" y="442.00" text-anchor="start" font-size="10.5" font-weight="400" fill="#202938" style="">Precomputed decode</text>
</svg>
