<?xml version="1.0" encoding="UTF-8"?>
<svg xmlns="http://www.w3.org/2000/svg" width="910" height="515"
     viewBox="0 0 910 515" role="img" aria-labelledby="title desc">
  <title id="title">LZ4 throughput ratios for kernel-backed execution</title>
  <desc id="desc">Vector figure generated from the checked experiment artifacts.</desc>
  <defs>
    <marker id="arrow" markerWidth="9" markerHeight="7" refX="8" refY="3.5" orient="auto">
      <polygon points="0 0, 9 3.5, 0 7" fill="#687386"/>
    </marker>
    <style>
      text { font-family: "Liberation Sans", "DejaVu Sans", Arial, sans-serif; }
    </style>
  </defs>
  <rect width="100%" height="100%" fill="white"/>
  <text x="75.00" y="35.00" text-anchor="start" font-size="13" font-weight="700" fill="#202938" style=""></text>
  <text x="75.00" y="35.00" text-anchor="start" font-size="13" font-weight="600" fill="#202938" style="">LZ4: kernel-backed throughput relative to user-space baselines</text>
  <line x1="90.00" y1="380.00" x2="850.00" y2="380.00" stroke="#D9DEE7" stroke-width="0.8" opacity="1"/>
  <text x="82.00" y="384.00" text-anchor="end" font-size="10" font-weight="400" fill="#687386" style="">-10</text>
  <line x1="90.00" y1="281.56" x2="850.00" y2="281.56" stroke="#D9DEE7" stroke-width="0.8" opacity="1"/>
  <text x="82.00" y="285.56" text-anchor="end" font-size="10" font-weight="400" fill="#687386" style="">-5</text>
  <line x1="90.00" y1="183.12" x2="850.00" y2="183.12" stroke="#D9DEE7" stroke-width="0.8" opacity="1"/>
  <text x="82.00" y="187.12" text-anchor="end" font-size="10" font-weight="400" fill="#687386" style="">0</text>
  <line x1="90.00" y1="84.69" x2="850.00" y2="84.69" stroke="#D9DEE7" stroke-width="0.8" opacity="1"/>
  <text x="82.00" y="88.69" text-anchor="end" font-size="10" font-weight="400" fill="#687386" style="">5</text>
  <line x1="90.00" y1="65.00" x2="90.00" y2="380.00" stroke="#202938" stroke-width="1" opacity="1"/>
  <line x1="90.00" y1="380.00" x2="850.00" y2="380.00" stroke="#202938" stroke-width="1" opacity="1"/>
  <line x1="90.00" y1="183.12" x2="850.00" y2="183.12" stroke="#687386" stroke-width="1.1" opacity="1"/>
  <text x="42.00" y="222.50" text-anchor="middle" font-size="11" font-weight="400" fill="#687386" transform="rotate(-90 42.00 222.50)" style="">throughput difference (%)</text>
  <line x1="139.33" y1="134.84" x2="139.33" y2="138.93" stroke="#16877A" stroke-width="1.2" opacity="1"/>
  <line x1="135.33" y1="134.84" x2="143.33" y2="134.84" stroke="#16877A" stroke-width="1.2" opacity="1"/>
  <line x1="135.33" y1="138.93" x2="143.33" y2="138.93" stroke="#16877A" stroke-width="1.2" opacity="1"/>
  <circle cx="139.33" cy="137.13" r="4.20" fill="#16877A" stroke="#FFFFFF" stroke-width="1.2"/>
  <line x1="266.00" y1="142.30" x2="266.00" y2="146.82" stroke="#16877A" stroke-width="1.2" opacity="1"/>
  <line x1="262.00" y1="142.30" x2="270.00" y2="142.30" stroke="#16877A" stroke-width="1.2" opacity="1"/>
  <line x1="262.00" y1="146.82" x2="270.00" y2="146.82" stroke="#16877A" stroke-width="1.2" opacity="1"/>
  <circle cx="266.00" cy="144.51" r="4.20" fill="#16877A" stroke="#FFFFFF" stroke-width="1.2"/>
  <line x1="392.67" y1="172.29" x2="392.67" y2="177.77" stroke="#16877A" stroke-width="1.2" opacity="1"/>
  <line x1="388.67" y1="172.29" x2="396.67" y2="172.29" stroke="#16877A" stroke-width="1.2" opacity="1"/>
  <line x1="388.67" y1="177.77" x2="396.67" y2="177.77" stroke="#16877A" stroke-width="1.2" opacity="1"/>
  <circle cx="392.67" cy="175.23" r="4.20" fill="#16877A" stroke="#FFFFFF" stroke-width="1.2"/>
  <line x1="519.33" y1="203.16" x2="519.33" y2="220.69" stroke="#16877A" stroke-width="1.2" opacity="1"/>
  <line x1="515.33" y1="203.16" x2="523.33" y2="203.16" stroke="#16877A" stroke-width="1.2" opacity="1"/>
  <line x1="515.33" y1="220.69" x2="523.33" y2="220.69" stroke="#16877A" stroke-width="1.2" opacity="1"/>
  <circle cx="519.33" cy="208.77" r="4.20" fill="#16877A" stroke="#FFFFFF" stroke-width="1.2"/>
  <line x1="646.00" y1="215.30" x2="646.00" y2="225.12" stroke="#16877A" stroke-width="1.2" opacity="1"/>
  <line x1="642.00" y1="215.30" x2="650.00" y2="215.30" stroke="#16877A" stroke-width="1.2" opacity="1"/>
  <line x1="642.00" y1="225.12" x2="650.00" y2="225.12" stroke="#16877A" stroke-width="1.2" opacity="1"/>
  <circle cx="646.00" cy="219.17" r="4.20" fill="#16877A" stroke="#FFFFFF" stroke-width="1.2"/>
  <line x1="772.67" y1="206.29" x2="772.67" y2="215.26" stroke="#16877A" stroke-width="1.2" opacity="1"/>
  <line x1="768.67" y1="206.29" x2="776.67" y2="206.29" stroke="#16877A" stroke-width="1.2" opacity="1"/>
  <line x1="768.67" y1="215.26" x2="776.67" y2="215.26" stroke="#16877A" stroke-width="1.2" opacity="1"/>
  <circle cx="772.67" cy="213.14" r="4.20" fill="#16877A" stroke="#FFFFFF" stroke-width="1.2"/>
  <polyline points="139.33,137.13 266.00,144.51 392.67,175.23 519.33,208.77 646.00,219.17 772.67,213.14" fill="none" stroke="#16877A" stroke-width="2" stroke-linejoin="round" stroke-linecap="round"/>
  <line x1="167.33" y1="110.46" x2="167.33" y2="113.96" stroke="#D97732" stroke-width="1.2" opacity="1"/>
  <line x1="163.33" y1="110.46" x2="171.33" y2="110.46" stroke="#D97732" stroke-width="1.2" opacity="1"/>
  <line x1="163.33" y1="113.96" x2="171.33" y2="113.96" stroke="#D97732" stroke-width="1.2" opacity="1"/>
  <circle cx="167.33" cy="112.75" r="4.20" fill="#D97732" stroke="#FFFFFF" stroke-width="1.2"/>
  <line x1="294.00" y1="162.71" x2="294.00" y2="167.00" stroke="#D97732" stroke-width="1.2" opacity="1"/>
  <line x1="290.00" y1="162.71" x2="298.00" y2="162.71" stroke="#D97732" stroke-width="1.2" opacity="1"/>
  <line x1="290.00" y1="167.00" x2="298.00" y2="167.00" stroke="#D97732" stroke-width="1.2" opacity="1"/>
  <circle cx="294.00" cy="165.93" r="4.20" fill="#D97732" stroke="#FFFFFF" stroke-width="1.2"/>
  <line x1="420.67" y1="154.70" x2="420.67" y2="171.52" stroke="#D97732" stroke-width="1.2" opacity="1"/>
  <line x1="416.67" y1="154.70" x2="424.67" y2="154.70" stroke="#D97732" stroke-width="1.2" opacity="1"/>
  <line x1="416.67" y1="171.52" x2="424.67" y2="171.52" stroke="#D97732" stroke-width="1.2" opacity="1"/>
  <circle cx="420.67" cy="168.41" r="4.20" fill="#D97732" stroke="#FFFFFF" stroke-width="1.2"/>
  <line x1="547.33" y1="254.75" x2="547.33" y2="265.95" stroke="#D97732" stroke-width="1.2" opacity="1"/>
  <line x1="543.33" y1="254.75" x2="551.33" y2="254.75" stroke="#D97732" stroke-width="1.2" opacity="1"/>
  <line x1="543.33" y1="265.95" x2="551.33" y2="265.95" stroke="#D97732" stroke-width="1.2" opacity="1"/>
  <circle cx="547.33" cy="259.88" r="4.20" fill="#D97732" stroke="#FFFFFF" stroke-width="1.2"/>
  <line x1="674.00" y1="235.65" x2="674.00" y2="241.99" stroke="#D97732" stroke-width="1.2" opacity="1"/>
  <line x1="670.00" y1="235.65" x2="678.00" y2="235.65" stroke="#D97732" stroke-width="1.2" opacity="1"/>
  <line x1="670.00" y1="241.99" x2="678.00" y2="241.99" stroke="#D97732" stroke-width="1.2" opacity="1"/>
  <circle cx="674.00" cy="237.58" r="4.20" fill="#D97732" stroke="#FFFFFF" stroke-width="1.2"/>
  <line x1="800.67" y1="329.37" x2="800.67" y2="339.26" stroke="#D97732" stroke-width="1.2" opacity="1"/>
  <line x1="796.67" y1="329.37" x2="804.67" y2="329.37" stroke="#D97732" stroke-width="1.2" opacity="1"/>
  <line x1="796.67" y1="339.26" x2="804.67" y2="339.26" stroke="#D97732" stroke-width="1.2" opacity="1"/>
  <circle cx="800.67" cy="335.16" r="4.20" fill="#D97732" stroke="#FFFFFF" stroke-width="1.2"/>
  <polyline points="167.33,112.75 294.00,165.93 420.67,168.41 547.33,259.88 674.00,237.58 800.67,335.16" fill="none" stroke="#D97732" stroke-width="2" stroke-linejoin="round" stroke-linecap="round"/>
  <text x="153.33" y="399.00" text-anchor="middle" font-size="10.5" font-weight="700" fill="#202938" style="">C</text>
  <text x="153.33" y="415.00" text-anchor="middle" font-size="9.5" font-weight="400" fill="#687386" style="">4K</text>
  <text x="280.00" y="399.00" text-anchor="middle" font-size="10.5" font-weight="700" fill="#202938" style="">C</text>
  <text x="280.00" y="415.00" text-anchor="middle" font-size="9.5" font-weight="400" fill="#687386" style="">64K</text>
  <text x="406.67" y="399.00" text-anchor="middle" font-size="10.5" font-weight="700" fill="#202938" style="">C</text>
  <text x="406.67" y="415.00" text-anchor="middle" font-size="9.5" font-weight="400" fill="#687386" style="">1M</text>
  <text x="533.33" y="399.00" text-anchor="middle" font-size="10.5" font-weight="700" fill="#202938" style="">D</text>
  <text x="533.33" y="415.00" text-anchor="middle" font-size="9.5" font-weight="400" fill="#687386" style="">4K</text>
  <text x="660.00" y="399.00" text-anchor="middle" font-size="10.5" font-weight="700" fill="#202938" style="">D</text>
  <text x="660.00" y="415.00" text-anchor="middle" font-size="9.5" font-weight="400" fill="#687386" style="">64K</text>
  <text x="786.67" y="399.00" text-anchor="middle" font-size="10.5" font-weight="700" fill="#202938" style="">D</text>
  <text x="786.67" y="415.00" text-anchor="middle" font-size="9.5" font-weight="400" fill="#687386" style="">1M</text>
  <text x="470.00" y="440.00" text-anchor="middle" font-size="9.5" font-weight="400" fill="#687386" style="">C = compression; D = decompression; bars show P10–P90</text>
  <line x1="245.00" y1="484.00" x2="265.00" y2="484.00" stroke="#16877A" stroke-width="2.5" opacity="1"/>
  <circle cx="255.00" cy="484.00" r="3.20" fill="#16877A" stroke="#FFFFFF" stroke-width="1.2"/>
  <text x="267.00" y="485.00" text-anchor="start" font-size="10.5" font-weight="400" fill="#202938" style="">vs. same-source no-SIMD</text>
  <line x1="460.00" y1="484.00" x2="480.00" y2="484.00" stroke="#D97732" stroke-width="2.5" opacity="1"/>
  <circle cx="470.00" cy="484.00" r="3.20" fill="#D97732" stroke="#FFFFFF" stroke-width="1.2"/>
  <text x="482.00" y="485.00" text-anchor="start" font-size="10.5" font-weight="400" fill="#202938" style="">vs. upstream native</text>
</svg>
