<?xml version="1.0" encoding="UTF-8"?>
<svg xmlns="http://www.w3.org/2000/svg" width="1260" height="430"
     viewBox="0 0 1260 430" role="img" aria-labelledby="title desc">
  <title id="title">Primitive costs of Pseudo-GOT adaptations</title>
  <desc id="desc">Vector figure generated from the checked experiment artifacts.</desc>
  <defs>
    <marker id="arrow" markerWidth="9" markerHeight="7" refX="8" refY="3.5" orient="auto">
      <polygon points="0 0, 9 3.5, 0 7" fill="#687386"/>
    </marker>
    <style>
      text { font-family: "Liberation Sans", "DejaVu Sans", Arial, sans-serif; }
    </style>
  </defs>
  <rect width="100%" height="100%" fill="white"/>
  <text x="60.00" y="30.00" text-anchor="start" font-size="13" font-weight="700" fill="#202938" style="">(a)</text>
  <text x="94.00" y="30.00" text-anchor="start" font-size="13" font-weight="600" fill="#202938" style="">Data-PGOT dependency</text>
  <line x1="60.00" y1="350.00" x2="405.00" y2="350.00" stroke="#D9DEE7" stroke-width="0.8" opacity="1"/>
  <text x="52.00" y="354.00" text-anchor="end" font-size="10" font-weight="400" fill="#687386" style="">0</text>
  <line x1="60.00" y1="297.32" x2="405.00" y2="297.32" stroke="#D9DEE7" stroke-width="0.8" opacity="1"/>
  <text x="52.00" y="301.32" text-anchor="end" font-size="10" font-weight="400" fill="#687386" style="">1</text>
  <line x1="60.00" y1="244.64" x2="405.00" y2="244.64" stroke="#D9DEE7" stroke-width="0.8" opacity="1"/>
  <text x="52.00" y="248.64" text-anchor="end" font-size="10" font-weight="400" fill="#687386" style="">2</text>
  <line x1="60.00" y1="191.96" x2="405.00" y2="191.96" stroke="#D9DEE7" stroke-width="0.8" opacity="1"/>
  <text x="52.00" y="195.96" text-anchor="end" font-size="10" font-weight="400" fill="#687386" style="">3</text>
  <line x1="60.00" y1="139.29" x2="405.00" y2="139.29" stroke="#D9DEE7" stroke-width="0.8" opacity="1"/>
  <text x="52.00" y="143.29" text-anchor="end" font-size="10" font-weight="400" fill="#687386" style="">4</text>
  <line x1="60.00" y1="86.61" x2="405.00" y2="86.61" stroke="#D9DEE7" stroke-width="0.8" opacity="1"/>
  <text x="52.00" y="90.61" text-anchor="end" font-size="10" font-weight="400" fill="#687386" style="">5</text>
  <line x1="60.00" y1="55.00" x2="60.00" y2="350.00" stroke="#202938" stroke-width="1" opacity="1"/>
  <line x1="60.00" y1="350.00" x2="405.00" y2="350.00" stroke="#202938" stroke-width="1" opacity="1"/>
  <text x="12.00" y="202.50" text-anchor="middle" font-size="11" font-weight="400" fill="#687386" transform="rotate(-90 12.00 202.50)" style="">extra cycles / access</text>
  <text x="88.75" y="369.00" text-anchor="middle" font-size="10" font-weight="400" fill="#687386" style="">1</text>
  <text x="146.25" y="369.00" text-anchor="middle" font-size="10" font-weight="400" fill="#687386" style="">2</text>
  <text x="203.75" y="369.00" text-anchor="middle" font-size="10" font-weight="400" fill="#687386" style="">4</text>
  <text x="261.25" y="369.00" text-anchor="middle" font-size="10" font-weight="400" fill="#687386" style="">6</text>
  <text x="318.75" y="369.00" text-anchor="middle" font-size="10" font-weight="400" fill="#687386" style="">8</text>
  <text x="376.25" y="369.00" text-anchor="middle" font-size="10" font-weight="400" fill="#687386" style="">10</text>
  <text x="232.50" y="390.00" text-anchor="middle" font-size="10.5" font-weight="400" fill="#687386" style="">accesses per loop iteration</text>
  <polyline points="88.75,344.73 146.25,332.41 203.75,323.61 261.25,323.56 318.75,323.56 376.25,323.56" fill="none" stroke="#3568A8" stroke-width="2.2" stroke-linejoin="round" stroke-linecap="round"/>
  <circle cx="88.75" cy="344.73" r="3.60" fill="#3568A8" stroke="#FFFFFF" stroke-width="1.2"/>
  <circle cx="146.25" cy="332.41" r="3.60" fill="#3568A8" stroke="#FFFFFF" stroke-width="1.2"/>
  <circle cx="203.75" cy="323.61" r="3.60" fill="#3568A8" stroke="#FFFFFF" stroke-width="1.2"/>
  <circle cx="261.25" cy="323.56" r="3.60" fill="#3568A8" stroke="#FFFFFF" stroke-width="1.2"/>
  <circle cx="318.75" cy="323.56" r="3.60" fill="#3568A8" stroke="#FFFFFF" stroke-width="1.2"/>
  <circle cx="376.25" cy="323.56" r="3.60" fill="#3568A8" stroke="#FFFFFF" stroke-width="1.2"/>
  <polyline points="88.75,85.71 146.25,85.71 203.75,85.71 261.25,85.13 318.75,85.29 376.25,85.55" fill="none" stroke="#D97732" stroke-width="2.2" stroke-linejoin="round" stroke-linecap="round"/>
  <circle cx="88.75" cy="85.71" r="3.60" fill="#D97732" stroke="#FFFFFF" stroke-width="1.2"/>
  <circle cx="146.25" cy="85.71" r="3.60" fill="#D97732" stroke="#FFFFFF" stroke-width="1.2"/>
  <circle cx="203.75" cy="85.71" r="3.60" fill="#D97732" stroke="#FFFFFF" stroke-width="1.2"/>
  <circle cx="261.25" cy="85.13" r="3.60" fill="#D97732" stroke="#FFFFFF" stroke-width="1.2"/>
  <circle cx="318.75" cy="85.29" r="3.60" fill="#D97732" stroke="#FFFFFF" stroke-width="1.2"/>
  <circle cx="376.25" cy="85.55" r="3.60" fill="#D97732" stroke="#FFFFFF" stroke-width="1.2"/>
  <line x1="105.00" y1="81.00" x2="125.00" y2="81.00" stroke="#3568A8" stroke-width="2.5" opacity="1"/>
  <circle cx="115.00" cy="81.00" r="3.20" fill="#3568A8" stroke="#FFFFFF" stroke-width="1.2"/>
  <text x="127.00" y="82.00" text-anchor="start" font-size="10.5" font-weight="400" fill="#202938" style="">independent</text>
  <line x1="105.00" y1="101.00" x2="125.00" y2="101.00" stroke="#D97732" stroke-width="2.5" opacity="1"/>
  <circle cx="115.00" cy="101.00" r="3.20" fill="#D97732" stroke="#FFFFFF" stroke-width="1.2"/>
  <text x="127.00" y="102.00" text-anchor="start" font-size="10.5" font-weight="400" fill="#202938" style="">dependent chain</text>
  <text x="460.00" y="30.00" text-anchor="start" font-size="13" font-weight="700" fill="#202938" style="">(b)</text>
  <text x="494.00" y="30.00" text-anchor="start" font-size="13" font-weight="600" fill="#202938" style="">Stable-target Func-PGOT</text>
  <line x1="460.00" y1="350.00" x2="765.00" y2="350.00" stroke="#D9DEE7" stroke-width="0.8" opacity="1"/>
  <text x="452.00" y="354.00" text-anchor="end" font-size="10" font-weight="400" fill="#687386" style="">0</text>
  <line x1="460.00" y1="284.44" x2="765.00" y2="284.44" stroke="#D9DEE7" stroke-width="0.8" opacity="1"/>
  <text x="452.00" y="288.44" text-anchor="end" font-size="10" font-weight="400" fill="#687386" style="">10</text>
  <line x1="460.00" y1="218.89" x2="765.00" y2="218.89" stroke="#D9DEE7" stroke-width="0.8" opacity="1"/>
  <text x="452.00" y="222.89" text-anchor="end" font-size="10" font-weight="400" fill="#687386" style="">20</text>
  <line x1="460.00" y1="153.33" x2="765.00" y2="153.33" stroke="#D9DEE7" stroke-width="0.8" opacity="1"/>
  <text x="452.00" y="157.33" text-anchor="end" font-size="10" font-weight="400" fill="#687386" style="">30</text>
  <line x1="460.00" y1="87.78" x2="765.00" y2="87.78" stroke="#D9DEE7" stroke-width="0.8" opacity="1"/>
  <text x="452.00" y="91.78" text-anchor="end" font-size="10" font-weight="400" fill="#687386" style="">40</text>
  <line x1="460.00" y1="55.00" x2="460.00" y2="350.00" stroke="#202938" stroke-width="1" opacity="1"/>
  <line x1="460.00" y1="350.00" x2="765.00" y2="350.00" stroke="#202938" stroke-width="1" opacity="1"/>
  <text x="412.00" y="202.50" text-anchor="middle" font-size="11" font-weight="400" fill="#687386" transform="rotate(-90 412.00 202.50)" style="">extra cycles / call</text>
  <rect x="515.00" y="343.42" width="72.00" height="6.58" rx="3.00" fill="#3568A8" stroke="#3568A8" stroke-width="0" opacity="1"/>
  <text x="551.00" y="335.42" text-anchor="middle" font-size="11" font-weight="700" fill="#3568A8" style="">1.0</text>
  <text x="551.00" y="369.00" text-anchor="middle" font-size="10.5" font-weight="600" fill="#202938" style="">No retpoline</text>
  <rect x="655.00" y="93.35" width="72.00" height="256.65" rx="3.00" fill="#D97732" stroke="#D97732" stroke-width="0" opacity="1"/>
  <text x="691.00" y="85.35" text-anchor="middle" font-size="11" font-weight="700" fill="#D97732" style="">39.1</text>
  <text x="691.00" y="369.00" text-anchor="middle" font-size="10.5" font-weight="600" fill="#202938" style="">Retpoline</text>
  <text x="825.00" y="30.00" text-anchor="start" font-size="13" font-weight="700" fill="#202938" style="">(c)</text>
  <text x="859.00" y="30.00" text-anchor="start" font-size="13" font-weight="600" fill="#202938" style="">Visible cost under useful work</text>
  <line x1="825.00" y1="318.62" x2="1195.00" y2="318.62" stroke="#D9DEE7" stroke-width="0.8" opacity="1"/>
  <text x="817.00" y="322.62" text-anchor="end" font-size="10" font-weight="400" fill="#687386" style="">0</text>
  <line x1="825.00" y1="255.85" x2="1195.00" y2="255.85" stroke="#D9DEE7" stroke-width="0.8" opacity="1"/>
  <text x="817.00" y="259.85" text-anchor="end" font-size="10" font-weight="400" fill="#687386" style="">10</text>
  <line x1="825.00" y1="193.09" x2="1195.00" y2="193.09" stroke="#D9DEE7" stroke-width="0.8" opacity="1"/>
  <text x="817.00" y="197.09" text-anchor="end" font-size="10" font-weight="400" fill="#687386" style="">20</text>
  <line x1="825.00" y1="130.32" x2="1195.00" y2="130.32" stroke="#D9DEE7" stroke-width="0.8" opacity="1"/>
  <text x="817.00" y="134.32" text-anchor="end" font-size="10" font-weight="400" fill="#687386" style="">30</text>
  <line x1="825.00" y1="67.55" x2="1195.00" y2="67.55" stroke="#D9DEE7" stroke-width="0.8" opacity="1"/>
  <text x="817.00" y="71.55" text-anchor="end" font-size="10" font-weight="400" fill="#687386" style="">40</text>
  <line x1="825.00" y1="55.00" x2="825.00" y2="350.00" stroke="#202938" stroke-width="1" opacity="1"/>
  <line x1="825.00" y1="350.00" x2="1195.00" y2="350.00" stroke="#202938" stroke-width="1" opacity="1"/>
  <line x1="825.00" y1="318.62" x2="1195.00" y2="318.62" stroke="#687386" stroke-width="1.1" opacity="1"/>
  <text x="777.00" y="202.50" text-anchor="middle" font-size="11" font-weight="400" fill="#687386" transform="rotate(-90 777.00 202.50)" style="">paired delta (cycles)</text>
  <polyline points="848.12,72.98 894.38,125.49 940.62,193.39 986.88,205.96 1033.12,262.84 1079.38,308.06 1125.62,320.18 1171.88,318.71" fill="none" stroke="#3568A8" stroke-width="2" stroke-linejoin="round" stroke-linecap="round"/>
  <circle cx="848.12" cy="72.98" r="3.20" fill="#3568A8" stroke="#FFFFFF" stroke-width="1.2"/>
  <circle cx="894.38" cy="125.49" r="3.20" fill="#3568A8" stroke="#FFFFFF" stroke-width="1.2"/>
  <circle cx="940.62" cy="193.39" r="3.20" fill="#3568A8" stroke="#FFFFFF" stroke-width="1.2"/>
  <circle cx="986.88" cy="205.96" r="3.20" fill="#3568A8" stroke="#FFFFFF" stroke-width="1.2"/>
  <circle cx="1033.12" cy="262.84" r="3.20" fill="#3568A8" stroke="#FFFFFF" stroke-width="1.2"/>
  <circle cx="1079.38" cy="308.06" r="3.20" fill="#3568A8" stroke="#FFFFFF" stroke-width="1.2"/>
  <circle cx="1125.62" cy="320.18" r="3.20" fill="#3568A8" stroke="#FFFFFF" stroke-width="1.2"/>
  <circle cx="1171.88" cy="318.71" r="3.20" fill="#3568A8" stroke="#FFFFFF" stroke-width="1.2"/>
  <polyline points="848.12,72.57 894.38,124.33 940.62,179.97 986.88,248.31 1033.12,298.08 1079.38,318.91 1125.62,318.95 1171.88,318.53" fill="none" stroke="#16877A" stroke-width="2" stroke-linejoin="round" stroke-linecap="round"/>
  <circle cx="848.12" cy="72.57" r="3.20" fill="#16877A" stroke="#FFFFFF" stroke-width="1.2"/>
  <circle cx="894.38" cy="124.33" r="3.20" fill="#16877A" stroke="#FFFFFF" stroke-width="1.2"/>
  <circle cx="940.62" cy="179.97" r="3.20" fill="#16877A" stroke="#FFFFFF" stroke-width="1.2"/>
  <circle cx="986.88" cy="248.31" r="3.20" fill="#16877A" stroke="#FFFFFF" stroke-width="1.2"/>
  <circle cx="1033.12" cy="298.08" r="3.20" fill="#16877A" stroke="#FFFFFF" stroke-width="1.2"/>
  <circle cx="1079.38" cy="318.91" r="3.20" fill="#16877A" stroke="#FFFFFF" stroke-width="1.2"/>
  <circle cx="1125.62" cy="318.95" r="3.20" fill="#16877A" stroke="#FFFFFF" stroke-width="1.2"/>
  <circle cx="1171.88" cy="318.53" r="3.20" fill="#16877A" stroke="#FFFFFF" stroke-width="1.2"/>
  <polyline points="848.12,72.98 894.38,89.79 940.62,161.16 986.88,216.56 1033.12,289.04 1079.38,319.82 1125.62,319.99 1171.88,318.88" fill="none" stroke="#D97732" stroke-width="2" stroke-linejoin="round" stroke-linecap="round"/>
  <circle cx="848.12" cy="72.98" r="3.20" fill="#D97732" stroke="#FFFFFF" stroke-width="1.2"/>
  <circle cx="894.38" cy="89.79" r="3.20" fill="#D97732" stroke="#FFFFFF" stroke-width="1.2"/>
  <circle cx="940.62" cy="161.16" r="3.20" fill="#D97732" stroke="#FFFFFF" stroke-width="1.2"/>
  <circle cx="986.88" cy="216.56" r="3.20" fill="#D97732" stroke="#FFFFFF" stroke-width="1.2"/>
  <circle cx="1033.12" cy="289.04" r="3.20" fill="#D97732" stroke="#FFFFFF" stroke-width="1.2"/>
  <circle cx="1079.38" cy="319.82" r="3.20" fill="#D97732" stroke="#FFFFFF" stroke-width="1.2"/>
  <circle cx="1125.62" cy="319.99" r="3.20" fill="#D97732" stroke="#FFFFFF" stroke-width="1.2"/>
  <circle cx="1171.88" cy="318.88" r="3.20" fill="#D97732" stroke="#FFFFFF" stroke-width="1.2"/>
  <text x="848.12" y="369.00" text-anchor="middle" font-size="10" font-weight="400" fill="#687386" style="">0</text>
  <text x="894.38" y="369.00" text-anchor="middle" font-size="10" font-weight="400" fill="#687386" style="">1</text>
  <text x="940.62" y="369.00" text-anchor="middle" font-size="10" font-weight="400" fill="#687386" style="">2</text>
  <text x="986.88" y="369.00" text-anchor="middle" font-size="10" font-weight="400" fill="#687386" style="">3</text>
  <text x="1033.12" y="369.00" text-anchor="middle" font-size="10" font-weight="400" fill="#687386" style="">4</text>
  <text x="1079.38" y="369.00" text-anchor="middle" font-size="10" font-weight="400" fill="#687386" style="">5</text>
  <text x="1125.62" y="369.00" text-anchor="middle" font-size="10" font-weight="400" fill="#687386" style="">6</text>
  <text x="1171.88" y="369.00" text-anchor="middle" font-size="10" font-weight="400" fill="#687386" style="">8</text>
  <text x="1010.00" y="390.00" text-anchor="middle" font-size="10.5" font-weight="400" fill="#687386" style="">work units</text>
  <line x1="877.00" y1="79.00" x2="897.00" y2="79.00" stroke="#3568A8" stroke-width="2.5" opacity="1"/>
  <circle cx="887.00" cy="79.00" r="3.20" fill="#3568A8" stroke="#FFFFFF" stroke-width="1.2"/>
  <text x="899.00" y="80.00" text-anchor="start" font-size="10.5" font-weight="400" fill="#202938" style="">before</text>
  <line x1="969.00" y1="79.00" x2="989.00" y2="79.00" stroke="#16877A" stroke-width="2.5" opacity="1"/>
  <circle cx="979.00" cy="79.00" r="3.20" fill="#16877A" stroke="#FFFFFF" stroke-width="1.2"/>
  <text x="991.00" y="80.00" text-anchor="start" font-size="10.5" font-weight="400" fill="#202938" style="">inside</text>
  <line x1="1061.00" y1="79.00" x2="1081.00" y2="79.00" stroke="#D97732" stroke-width="2.5" opacity="1"/>
  <circle cx="1071.00" cy="79.00" r="3.20" fill="#D97732" stroke="#FFFFFF" stroke-width="1.2"/>
  <text x="1083.00" y="80.00" text-anchor="start" font-size="10.5" font-weight="400" fill="#202938" style="">after</text>
</svg>
