<svg xmlns="http://www.w3.org/2000/svg" width="1500" height="930" viewBox="0 0 1500 930">
<rect x="0.0" y="0.0" width="1500.0" height="930.0" fill="#ffffff" stroke="none"/>
<text x="750.0" y="30.0" text-anchor="middle" font-family="Arial, Helvetica, sans-serif" font-size="19" font-weight="700" fill="#1f2933">Steady-state Microbenchmark Deltas</text>
<text x="750.0" y="54.0" text-anchor="middle" font-family="Arial, Helvetica, sans-serif" font-size="12" font-weight="400" fill="#607083">Bars report Adapted - Native within each flavor; cycles/call is shown as percent delta</text>
<rect x="618.0" y="67.0" width="18.0" height="10.0" fill="#2a6fbb" stroke="none"/>
<text x="644.0" y="76.0" text-anchor="start" font-family="Arial, Helvetica, sans-serif" font-size="11" font-weight="400" fill="#1f2933">Retpoline</text>
<rect x="730.0" y="67.0" width="18.0" height="10.0" fill="#2f9e73" stroke="none"/>
<text x="756.0" y="76.0" text-anchor="start" font-family="Arial, Helvetica, sans-serif" font-size="11" font-weight="400" fill="#1f2933">No retpoline</text>
<text x="118.0" y="106.0" text-anchor="start" font-family="Arial, Helvetica, sans-serif" font-size="15" font-weight="700" fill="#1f2933">A. Steady-state overhead</text>
<line x1="118.0" y1="341.7" x2="678.0" y2="341.7" stroke="#d9dee7" stroke-width="1.0" stroke-dasharray="4 4"/>
<text x="110.0" y="345.7" text-anchor="end" font-family="Arial, Helvetica, sans-serif" font-size="9.5" font-weight="400" fill="#1f2933">-3.0</text>
<line x1="118.0" y1="299.4" x2="678.0" y2="299.4" stroke="#d9dee7" stroke-width="1.0" stroke-dasharray="4 4"/>
<text x="110.0" y="303.4" text-anchor="end" font-family="Arial, Helvetica, sans-serif" font-size="9.5" font-weight="400" fill="#1f2933">-2.0</text>
<line x1="118.0" y1="257.2" x2="678.0" y2="257.2" stroke="#d9dee7" stroke-width="1.0" stroke-dasharray="4 4"/>
<text x="110.0" y="261.2" text-anchor="end" font-family="Arial, Helvetica, sans-serif" font-size="9.5" font-weight="400" fill="#1f2933">-1.0</text>
<line x1="118.0" y1="214.9" x2="678.0" y2="214.9" stroke="#d9dee7" stroke-width="1.0"/>
<text x="110.0" y="218.9" text-anchor="end" font-family="Arial, Helvetica, sans-serif" font-size="9.5" font-weight="400" fill="#1f2933">0.0</text>
<line x1="118.0" y1="172.7" x2="678.0" y2="172.7" stroke="#d9dee7" stroke-width="1.0" stroke-dasharray="4 4"/>
<text x="110.0" y="176.7" text-anchor="end" font-family="Arial, Helvetica, sans-serif" font-size="9.5" font-weight="400" fill="#1f2933">1.0</text>
<line x1="118.0" y1="130.4" x2="678.0" y2="130.4" stroke="#d9dee7" stroke-width="1.0" stroke-dasharray="4 4"/>
<text x="110.0" y="134.4" text-anchor="end" font-family="Arial, Helvetica, sans-serif" font-size="9.5" font-weight="400" fill="#1f2933">2.0</text>
<line x1="118.0" y1="214.9" x2="678.0" y2="214.9" stroke="#3a7fb7" stroke-width="1.4"/>
<line x1="118.0" y1="122.0" x2="118.0" y2="367.0" stroke="#2d3748" stroke-width="1.1"/>
<line x1="118.0" y1="367.0" x2="678.0" y2="367.0" stroke="#2d3748" stroke-width="1.1"/>
<text x="60.0" y="244.5" text-anchor="middle" font-family="Arial, Helvetica, sans-serif" font-size="11" font-weight="400" fill="#1f2933" transform="rotate(-90.0 60.0 244.5)">Delta cycles/call (%)</text>
<rect x="132.1" y="214.9" width="18.2" height="16.2" fill="#2a6fbb" stroke="none"/>
<text x="141.2" y="243.2" text-anchor="middle" font-family="Arial, Helvetica, sans-serif" font-size="8.5" font-weight="400" fill="#1f2933">-0.38%</text>
<rect x="155.7" y="214.9" width="18.2" height="16.2" fill="#2f9e73" stroke="none"/>
<text x="164.8" y="243.2" text-anchor="middle" font-family="Arial, Helvetica, sans-serif" font-size="8.5" font-weight="400" fill="#1f2933">-0.38%</text>
<text x="153.0" y="407.0" text-anchor="end" font-family="Arial, Helvetica, sans-serif" font-size="10" font-weight="400" fill="#1f2933" transform="rotate(-32.0 153.0 407.0)">sha256</text>
<rect x="202.1" y="214.9" width="18.2" height="38.0" fill="#2a6fbb" stroke="none"/>
<text x="211.2" y="264.9" text-anchor="middle" font-family="Arial, Helvetica, sans-serif" font-size="8.5" font-weight="400" fill="#1f2933">-0.90%</text>
<rect x="225.7" y="214.9" width="18.2" height="56.1" fill="#2f9e73" stroke="none"/>
<text x="234.8" y="283.0" text-anchor="middle" font-family="Arial, Helvetica, sans-serif" font-size="8.5" font-weight="400" fill="#1f2933">-1.33%</text>
<text x="223.0" y="407.0" text-anchor="end" font-family="Arial, Helvetica, sans-serif" font-size="10" font-weight="400" fill="#1f2933" transform="rotate(-32.0 223.0 407.0)">crc32</text>
<rect x="272.1" y="214.9" width="18.2" height="136.9" fill="#2a6fbb" stroke="none"/>
<text x="281.2" y="362.0" text-anchor="middle" font-family="Arial, Helvetica, sans-serif" font-size="8.5" font-weight="400" fill="#1f2933">-3.24%</text>
<rect x="295.7" y="138.7" width="18.2" height="76.2" fill="#2f9e73" stroke="none"/>
<text x="304.8" y="132.7" text-anchor="middle" font-family="Arial, Helvetica, sans-serif" font-size="8.5" font-weight="400" fill="#1f2933">+1.80%</text>
<text x="293.0" y="407.0" text-anchor="end" font-family="Arial, Helvetica, sans-serif" font-size="10" font-weight="400" fill="#1f2933" transform="rotate(-32.0 293.0 407.0)">errname</text>
<rect x="342.1" y="201.9" width="18.2" height="13.0" fill="#2a6fbb" stroke="none"/>
<text x="351.2" y="195.9" text-anchor="middle" font-family="Arial, Helvetica, sans-serif" font-size="8.5" font-weight="400" fill="#1f2933">+0.31%</text>
<rect x="365.7" y="214.9" width="18.2" height="46.7" fill="#2f9e73" stroke="none"/>
<text x="374.8" y="273.7" text-anchor="middle" font-family="Arial, Helvetica, sans-serif" font-size="8.5" font-weight="400" fill="#1f2933">-1.11%</text>
<text x="363.0" y="407.0" text-anchor="end" font-family="Arial, Helvetica, sans-serif" font-size="10" font-weight="400" fill="#1f2933" transform="rotate(-32.0 363.0 407.0)">strscpy</text>
<rect x="412.1" y="213.2" width="18.2" height="1.7" fill="#2a6fbb" stroke="none"/>
<text x="421.2" y="207.2" text-anchor="middle" font-family="Arial, Helvetica, sans-serif" font-size="8.5" font-weight="400" fill="#1f2933">+0.04%</text>
<rect x="435.7" y="199.7" width="18.2" height="15.3" fill="#2f9e73" stroke="none"/>
<text x="444.8" y="193.7" text-anchor="middle" font-family="Arial, Helvetica, sans-serif" font-size="8.5" font-weight="400" fill="#1f2933">+0.36%</text>
<text x="433.0" y="407.0" text-anchor="end" font-family="Arial, Helvetica, sans-serif" font-size="10" font-weight="400" fill="#1f2933" transform="rotate(-32.0 433.0 407.0)">size</text>
<rect x="482.1" y="214.9" width="18.2" height="2.7" fill="#2a6fbb" stroke="none"/>
<text x="491.2" y="229.6" text-anchor="middle" font-family="Arial, Helvetica, sans-serif" font-size="8.5" font-weight="400" fill="#1f2933">-0.06%</text>
<rect x="505.7" y="210.2" width="18.2" height="4.7" fill="#2f9e73" stroke="none"/>
<text x="514.8" y="204.2" text-anchor="middle" font-family="Arial, Helvetica, sans-serif" font-size="8.5" font-weight="400" fill="#1f2933">+0.11%</text>
<text x="503.0" y="407.0" text-anchor="end" font-family="Arial, Helvetica, sans-serif" font-size="10" font-weight="400" fill="#1f2933" transform="rotate(-32.0 503.0 407.0)">strlcat</text>
<rect x="552.1" y="214.1" width="18.2" height="1.0" fill="#2a6fbb" stroke="none"/>
<text x="561.2" y="208.1" text-anchor="middle" font-family="Arial, Helvetica, sans-serif" font-size="8.5" font-weight="400" fill="#1f2933">+0.02%</text>
<rect x="575.7" y="214.8" width="18.2" height="1.0" fill="#2f9e73" stroke="none"/>
<text x="584.8" y="208.8" text-anchor="middle" font-family="Arial, Helvetica, sans-serif" font-size="8.5" font-weight="400" fill="#1f2933">+0.00%</text>
<text x="573.0" y="407.0" text-anchor="end" font-family="Arial, Helvetica, sans-serif" font-size="10" font-weight="400" fill="#1f2933" transform="rotate(-32.0 573.0 407.0)">strlcpy</text>
<rect x="622.1" y="176.2" width="18.2" height="38.7" fill="#2a6fbb" stroke="none"/>
<text x="631.2" y="170.2" text-anchor="middle" font-family="Arial, Helvetica, sans-serif" font-size="8.5" font-weight="400" fill="#1f2933">+0.92%</text>
<rect x="645.7" y="185.2" width="18.2" height="29.7" fill="#2f9e73" stroke="none"/>
<text x="654.8" y="179.2" text-anchor="middle" font-family="Arial, Helvetica, sans-serif" font-size="8.5" font-weight="400" fill="#1f2933">+0.70%</text>
<text x="643.0" y="407.0" text-anchor="end" font-family="Arial, Helvetica, sans-serif" font-size="10" font-weight="400" fill="#1f2933" transform="rotate(-32.0 643.0 407.0)">hex_dump</text>
<text x="832.0" y="106.0" text-anchor="start" font-family="Arial, Helvetica, sans-serif" font-size="15" font-weight="700" fill="#1f2933">B. Retired instructions</text>
<line x1="832.0" y1="367.0" x2="1392.0" y2="367.0" stroke="#d9dee7" stroke-width="1.0" stroke-dasharray="4 4"/>
<text x="824.0" y="371.0" text-anchor="end" font-family="Arial, Helvetica, sans-serif" font-size="9.5" font-weight="400" fill="#1f2933">-4</text>
<line x1="832.0" y1="329.3" x2="1392.0" y2="329.3" stroke="#d9dee7" stroke-width="1.0"/>
<text x="824.0" y="333.3" text-anchor="end" font-family="Arial, Helvetica, sans-serif" font-size="9.5" font-weight="400" fill="#1f2933">0</text>
<line x1="832.0" y1="291.6" x2="1392.0" y2="291.6" stroke="#d9dee7" stroke-width="1.0" stroke-dasharray="4 4"/>
<text x="824.0" y="295.6" text-anchor="end" font-family="Arial, Helvetica, sans-serif" font-size="9.5" font-weight="400" fill="#1f2933">4</text>
<line x1="832.0" y1="253.9" x2="1392.0" y2="253.9" stroke="#d9dee7" stroke-width="1.0" stroke-dasharray="4 4"/>
<text x="824.0" y="257.9" text-anchor="end" font-family="Arial, Helvetica, sans-serif" font-size="9.5" font-weight="400" fill="#1f2933">8</text>
<line x1="832.0" y1="216.2" x2="1392.0" y2="216.2" stroke="#d9dee7" stroke-width="1.0" stroke-dasharray="4 4"/>
<text x="824.0" y="220.2" text-anchor="end" font-family="Arial, Helvetica, sans-serif" font-size="9.5" font-weight="400" fill="#1f2933">12</text>
<line x1="832.0" y1="178.5" x2="1392.0" y2="178.5" stroke="#d9dee7" stroke-width="1.0" stroke-dasharray="4 4"/>
<text x="824.0" y="182.5" text-anchor="end" font-family="Arial, Helvetica, sans-serif" font-size="9.5" font-weight="400" fill="#1f2933">16</text>
<line x1="832.0" y1="140.8" x2="1392.0" y2="140.8" stroke="#d9dee7" stroke-width="1.0" stroke-dasharray="4 4"/>
<text x="824.0" y="144.8" text-anchor="end" font-family="Arial, Helvetica, sans-serif" font-size="9.5" font-weight="400" fill="#1f2933">20</text>
<line x1="832.0" y1="103.2" x2="1392.0" y2="103.2" stroke="#d9dee7" stroke-width="1.0" stroke-dasharray="4 4"/>
<text x="824.0" y="107.2" text-anchor="end" font-family="Arial, Helvetica, sans-serif" font-size="9.5" font-weight="400" fill="#1f2933">24</text>
<line x1="832.0" y1="329.3" x2="1392.0" y2="329.3" stroke="#3a7fb7" stroke-width="1.4"/>
<line x1="832.0" y1="122.0" x2="832.0" y2="367.0" stroke="#2d3748" stroke-width="1.1"/>
<line x1="832.0" y1="367.0" x2="1392.0" y2="367.0" stroke="#2d3748" stroke-width="1.1"/>
<text x="774.0" y="244.5" text-anchor="middle" font-family="Arial, Helvetica, sans-serif" font-size="11" font-weight="400" fill="#1f2933" transform="rotate(-90.0 774.0 244.5)">Delta instructions/call</text>
<rect x="846.1" y="225.7" width="18.2" height="103.7" fill="#2a6fbb" stroke="none"/>
<text x="855.2" y="219.7" text-anchor="middle" font-family="Arial, Helvetica, sans-serif" font-size="8.5" font-weight="400" fill="#1f2933">+11.0</text>
<rect x="869.7" y="225.7" width="18.2" height="103.7" fill="#2f9e73" stroke="none"/>
<text x="878.8" y="219.7" text-anchor="middle" font-family="Arial, Helvetica, sans-serif" font-size="8.5" font-weight="400" fill="#1f2933">+11.0</text>
<text x="867.0" y="407.0" text-anchor="end" font-family="Arial, Helvetica, sans-serif" font-size="10" font-weight="400" fill="#1f2933" transform="rotate(-32.0 867.0 407.0)">sha256</text>
<rect x="916.1" y="319.9" width="18.2" height="9.4" fill="#2a6fbb" stroke="none"/>
<rect x="939.7" y="319.9" width="18.2" height="9.4" fill="#2f9e73" stroke="none"/>
<text x="937.0" y="407.0" text-anchor="end" font-family="Arial, Helvetica, sans-serif" font-size="10" font-weight="400" fill="#1f2933" transform="rotate(-32.0 937.0 407.0)">crc32</text>
<rect x="986.1" y="329.3" width="18.2" height="23.6" fill="#2a6fbb" stroke="none"/>
<text x="995.2" y="362.0" text-anchor="middle" font-family="Arial, Helvetica, sans-serif" font-size="8.5" font-weight="400" fill="#1f2933">-2.5</text>
<rect x="1009.7" y="329.3" width="18.2" height="23.6" fill="#2f9e73" stroke="none"/>
<text x="1018.8" y="362.0" text-anchor="middle" font-family="Arial, Helvetica, sans-serif" font-size="8.5" font-weight="400" fill="#1f2933">-2.5</text>
<text x="1007.0" y="407.0" text-anchor="end" font-family="Arial, Helvetica, sans-serif" font-size="10" font-weight="400" fill="#1f2933" transform="rotate(-32.0 1007.0 407.0)">errname</text>
<rect x="1056.1" y="291.6" width="18.2" height="37.7" fill="#2a6fbb" stroke="none"/>
<text x="1065.2" y="285.6" text-anchor="middle" font-family="Arial, Helvetica, sans-serif" font-size="8.5" font-weight="400" fill="#1f2933">+4.0</text>
<rect x="1079.7" y="310.5" width="18.2" height="18.8" fill="#2f9e73" stroke="none"/>
<text x="1088.8" y="304.5" text-anchor="middle" font-family="Arial, Helvetica, sans-serif" font-size="8.5" font-weight="400" fill="#1f2933">+2.0</text>
<text x="1077.0" y="407.0" text-anchor="end" font-family="Arial, Helvetica, sans-serif" font-size="10" font-weight="400" fill="#1f2933" transform="rotate(-32.0 1077.0 407.0)">strscpy</text>
<rect x="1126.1" y="246.2" width="18.2" height="83.1" fill="#2a6fbb" stroke="none"/>
<text x="1135.2" y="240.2" text-anchor="middle" font-family="Arial, Helvetica, sans-serif" font-size="8.5" font-weight="400" fill="#1f2933">+8.8</text>
<rect x="1149.7" y="262.8" width="18.2" height="66.5" fill="#2f9e73" stroke="none"/>
<text x="1158.8" y="256.8" text-anchor="middle" font-family="Arial, Helvetica, sans-serif" font-size="8.5" font-weight="400" fill="#1f2933">+7.1</text>
<text x="1147.0" y="407.0" text-anchor="end" font-family="Arial, Helvetica, sans-serif" font-size="10" font-weight="400" fill="#1f2933" transform="rotate(-32.0 1147.0 407.0)">size</text>
<rect x="1196.1" y="242.0" width="18.2" height="87.3" fill="#2a6fbb" stroke="none"/>
<text x="1205.2" y="236.0" text-anchor="middle" font-family="Arial, Helvetica, sans-serif" font-size="8.5" font-weight="400" fill="#1f2933">+9.3</text>
<rect x="1219.7" y="269.9" width="18.2" height="59.4" fill="#2f9e73" stroke="none"/>
<text x="1228.8" y="263.9" text-anchor="middle" font-family="Arial, Helvetica, sans-serif" font-size="8.5" font-weight="400" fill="#1f2933">+6.3</text>
<text x="1217.0" y="407.0" text-anchor="end" font-family="Arial, Helvetica, sans-serif" font-size="10" font-weight="400" fill="#1f2933" transform="rotate(-32.0 1217.0 407.0)">strlcat</text>
<rect x="1266.1" y="293.4" width="18.2" height="35.9" fill="#2a6fbb" stroke="none"/>
<text x="1275.2" y="287.4" text-anchor="middle" font-family="Arial, Helvetica, sans-serif" font-size="8.5" font-weight="400" fill="#1f2933">+3.8</text>
<rect x="1289.7" y="313.4" width="18.2" height="16.0" fill="#2f9e73" stroke="none"/>
<text x="1298.8" y="307.4" text-anchor="middle" font-family="Arial, Helvetica, sans-serif" font-size="8.5" font-weight="400" fill="#1f2933">+1.7</text>
<text x="1287.0" y="407.0" text-anchor="end" font-family="Arial, Helvetica, sans-serif" font-size="10" font-weight="400" fill="#1f2933" transform="rotate(-32.0 1287.0 407.0)">strlcpy</text>
<rect x="1336.1" y="149.0" width="18.2" height="180.3" fill="#2a6fbb" stroke="none"/>
<text x="1345.2" y="143.0" text-anchor="middle" font-family="Arial, Helvetica, sans-serif" font-size="8.5" font-weight="400" fill="#1f2933">+19.1</text>
<rect x="1359.7" y="170.4" width="18.2" height="158.9" fill="#2f9e73" stroke="none"/>
<text x="1368.8" y="164.4" text-anchor="middle" font-family="Arial, Helvetica, sans-serif" font-size="8.5" font-weight="400" fill="#1f2933">+16.9</text>
<text x="1357.0" y="407.0" text-anchor="end" font-family="Arial, Helvetica, sans-serif" font-size="10" font-weight="400" fill="#1f2933" transform="rotate(-32.0 1357.0 407.0)">hex_dump</text>
<text x="118.0" y="493.0" text-anchor="start" font-family="Arial, Helvetica, sans-serif" font-size="15" font-weight="700" fill="#1f2933">C. Retired branches</text>
<line x1="118.0" y1="754.0" x2="678.0" y2="754.0" stroke="#d9dee7" stroke-width="1.0" stroke-dasharray="4 4"/>
<text x="110.0" y="758.0" text-anchor="end" font-family="Arial, Helvetica, sans-serif" font-size="9.5" font-weight="400" fill="#1f2933">-1.2</text>
<line x1="118.0" y1="719.0" x2="678.0" y2="719.0" stroke="#d9dee7" stroke-width="1.0" stroke-dasharray="4 4"/>
<text x="110.0" y="723.0" text-anchor="end" font-family="Arial, Helvetica, sans-serif" font-size="9.5" font-weight="400" fill="#1f2933">-1.0</text>
<line x1="118.0" y1="684.0" x2="678.0" y2="684.0" stroke="#d9dee7" stroke-width="1.0" stroke-dasharray="4 4"/>
<text x="110.0" y="688.0" text-anchor="end" font-family="Arial, Helvetica, sans-serif" font-size="9.5" font-weight="400" fill="#1f2933">-0.8</text>
<line x1="118.0" y1="649.0" x2="678.0" y2="649.0" stroke="#d9dee7" stroke-width="1.0" stroke-dasharray="4 4"/>
<text x="110.0" y="653.0" text-anchor="end" font-family="Arial, Helvetica, sans-serif" font-size="9.5" font-weight="400" fill="#1f2933">-0.6</text>
<line x1="118.0" y1="614.0" x2="678.0" y2="614.0" stroke="#d9dee7" stroke-width="1.0" stroke-dasharray="4 4"/>
<text x="110.0" y="618.0" text-anchor="end" font-family="Arial, Helvetica, sans-serif" font-size="9.5" font-weight="400" fill="#1f2933">-0.4</text>
<line x1="118.0" y1="579.0" x2="678.0" y2="579.0" stroke="#d9dee7" stroke-width="1.0" stroke-dasharray="4 4"/>
<text x="110.0" y="583.0" text-anchor="end" font-family="Arial, Helvetica, sans-serif" font-size="9.5" font-weight="400" fill="#1f2933">-0.2</text>
<line x1="118.0" y1="544.0" x2="678.0" y2="544.0" stroke="#d9dee7" stroke-width="1.0"/>
<text x="110.0" y="548.0" text-anchor="end" font-family="Arial, Helvetica, sans-serif" font-size="9.5" font-weight="400" fill="#1f2933">-0.0</text>
<line x1="118.0" y1="509.0" x2="678.0" y2="509.0" stroke="#d9dee7" stroke-width="1.0" stroke-dasharray="4 4"/>
<text x="110.0" y="513.0" text-anchor="end" font-family="Arial, Helvetica, sans-serif" font-size="9.5" font-weight="400" fill="#1f2933">0.2</text>
<line x1="118.0" y1="544.0" x2="678.0" y2="544.0" stroke="#3a7fb7" stroke-width="1.4"/>
<line x1="118.0" y1="509.0" x2="118.0" y2="754.0" stroke="#2d3748" stroke-width="1.1"/>
<line x1="118.0" y1="754.0" x2="678.0" y2="754.0" stroke="#2d3748" stroke-width="1.1"/>
<text x="60.0" y="631.5" text-anchor="middle" font-family="Arial, Helvetica, sans-serif" font-size="11" font-weight="400" fill="#1f2933" transform="rotate(-90.0 60.0 631.5)">Delta branches/call</text>
<rect x="132.1" y="544.0" width="18.2" height="175.0" fill="#2a6fbb" stroke="none"/>
<text x="141.2" y="731.0" text-anchor="middle" font-family="Arial, Helvetica, sans-serif" font-size="8.5" font-weight="400" fill="#1f2933">-1.0</text>
<rect x="155.7" y="544.0" width="18.2" height="175.0" fill="#2f9e73" stroke="none"/>
<text x="164.8" y="731.0" text-anchor="middle" font-family="Arial, Helvetica, sans-serif" font-size="8.5" font-weight="400" fill="#1f2933">-1.0</text>
<text x="153.0" y="794.0" text-anchor="end" font-family="Arial, Helvetica, sans-serif" font-size="10" font-weight="400" fill="#1f2933" transform="rotate(-32.0 153.0 794.0)">sha256</text>
<rect x="202.1" y="544.0" width="18.2" height="1.0" fill="#2a6fbb" stroke="none"/>
<rect x="225.7" y="544.0" width="18.2" height="1.0" fill="#2f9e73" stroke="none"/>
<text x="223.0" y="794.0" text-anchor="end" font-family="Arial, Helvetica, sans-serif" font-size="10" font-weight="400" fill="#1f2933" transform="rotate(-32.0 223.0 794.0)">crc32</text>
<rect x="272.1" y="544.0" width="18.2" height="64.0" fill="#2a6fbb" stroke="none"/>
<text x="281.2" y="620.0" text-anchor="middle" font-family="Arial, Helvetica, sans-serif" font-size="8.5" font-weight="400" fill="#1f2933">-0.4</text>
<rect x="295.7" y="544.0" width="18.2" height="64.0" fill="#2f9e73" stroke="none"/>
<text x="304.8" y="620.0" text-anchor="middle" font-family="Arial, Helvetica, sans-serif" font-size="8.5" font-weight="400" fill="#1f2933">-0.4</text>
<text x="293.0" y="794.0" text-anchor="end" font-family="Arial, Helvetica, sans-serif" font-size="10" font-weight="400" fill="#1f2933" transform="rotate(-32.0 293.0 794.0)">errname</text>
<rect x="342.1" y="544.0" width="18.2" height="1.0" fill="#2a6fbb" stroke="none"/>
<rect x="365.7" y="544.0" width="18.2" height="1.0" fill="#2f9e73" stroke="none"/>
<text x="363.0" y="794.0" text-anchor="end" font-family="Arial, Helvetica, sans-serif" font-size="10" font-weight="400" fill="#1f2933" transform="rotate(-32.0 363.0 794.0)">strscpy</text>
<rect x="412.1" y="544.0" width="18.2" height="175.0" fill="#2a6fbb" stroke="none"/>
<text x="421.2" y="731.0" text-anchor="middle" font-family="Arial, Helvetica, sans-serif" font-size="8.5" font-weight="400" fill="#1f2933">-1.0</text>
<rect x="435.7" y="544.0" width="18.2" height="175.0" fill="#2f9e73" stroke="none"/>
<text x="444.8" y="731.0" text-anchor="middle" font-family="Arial, Helvetica, sans-serif" font-size="8.5" font-weight="400" fill="#1f2933">-1.0</text>
<text x="433.0" y="794.0" text-anchor="end" font-family="Arial, Helvetica, sans-serif" font-size="10" font-weight="400" fill="#1f2933" transform="rotate(-32.0 433.0 794.0)">size</text>
<rect x="482.1" y="535.2" width="18.2" height="8.8" fill="#2a6fbb" stroke="none"/>
<text x="491.2" y="529.2" text-anchor="middle" font-family="Arial, Helvetica, sans-serif" font-size="8.5" font-weight="400" fill="#1f2933">+0.05</text>
<rect x="505.7" y="534.0" width="18.2" height="10.0" fill="#2f9e73" stroke="none"/>
<text x="514.8" y="528.0" text-anchor="middle" font-family="Arial, Helvetica, sans-serif" font-size="8.5" font-weight="400" fill="#1f2933">+0.06</text>
<text x="503.0" y="794.0" text-anchor="end" font-family="Arial, Helvetica, sans-serif" font-size="10" font-weight="400" fill="#1f2933" transform="rotate(-32.0 503.0 794.0)">strlcat</text>
<rect x="552.1" y="544.0" width="18.2" height="6.3" fill="#2a6fbb" stroke="none"/>
<rect x="575.7" y="544.0" width="18.2" height="10.0" fill="#2f9e73" stroke="none"/>
<text x="584.8" y="566.0" text-anchor="middle" font-family="Arial, Helvetica, sans-serif" font-size="8.5" font-weight="400" fill="#1f2933">-0.06</text>
<text x="573.0" y="794.0" text-anchor="end" font-family="Arial, Helvetica, sans-serif" font-size="10" font-weight="400" fill="#1f2933" transform="rotate(-32.0 573.0 794.0)">strlcpy</text>
<rect x="622.1" y="543.5" width="18.2" height="1.0" fill="#2a6fbb" stroke="none"/>
<rect x="645.7" y="540.5" width="18.2" height="3.5" fill="#2f9e73" stroke="none"/>
<text x="643.0" y="794.0" text-anchor="end" font-family="Arial, Helvetica, sans-serif" font-size="10" font-weight="400" fill="#1f2933" transform="rotate(-32.0 643.0 794.0)">hex_dump</text>
<text x="832.0" y="493.0" text-anchor="start" font-family="Arial, Helvetica, sans-serif" font-size="15" font-weight="700" fill="#1f2933">D. CPI</text>
<line x1="832.0" y1="754.0" x2="1392.0" y2="754.0" stroke="#d9dee7" stroke-width="1.0" stroke-dasharray="4 4"/>
<text x="824.0" y="758.0" text-anchor="end" font-family="Arial, Helvetica, sans-serif" font-size="9.5" font-weight="400" fill="#1f2933">-0.009</text>
<line x1="832.0" y1="723.4" x2="1392.0" y2="723.4" stroke="#d9dee7" stroke-width="1.0" stroke-dasharray="4 4"/>
<text x="824.0" y="727.4" text-anchor="end" font-family="Arial, Helvetica, sans-serif" font-size="9.5" font-weight="400" fill="#1f2933">-0.006</text>
<line x1="832.0" y1="692.8" x2="1392.0" y2="692.8" stroke="#d9dee7" stroke-width="1.0" stroke-dasharray="4 4"/>
<text x="824.0" y="696.8" text-anchor="end" font-family="Arial, Helvetica, sans-serif" font-size="9.5" font-weight="400" fill="#1f2933">-0.003</text>
<line x1="832.0" y1="662.1" x2="1392.0" y2="662.1" stroke="#d9dee7" stroke-width="1.0"/>
<text x="824.0" y="666.1" text-anchor="end" font-family="Arial, Helvetica, sans-serif" font-size="9.5" font-weight="400" fill="#1f2933">0.000</text>
<line x1="832.0" y1="631.5" x2="1392.0" y2="631.5" stroke="#d9dee7" stroke-width="1.0" stroke-dasharray="4 4"/>
<text x="824.0" y="635.5" text-anchor="end" font-family="Arial, Helvetica, sans-serif" font-size="9.5" font-weight="400" fill="#1f2933">0.003</text>
<line x1="832.0" y1="600.9" x2="1392.0" y2="600.9" stroke="#d9dee7" stroke-width="1.0" stroke-dasharray="4 4"/>
<text x="824.0" y="604.9" text-anchor="end" font-family="Arial, Helvetica, sans-serif" font-size="9.5" font-weight="400" fill="#1f2933">0.006</text>
<line x1="832.0" y1="570.2" x2="1392.0" y2="570.2" stroke="#d9dee7" stroke-width="1.0" stroke-dasharray="4 4"/>
<text x="824.0" y="574.2" text-anchor="end" font-family="Arial, Helvetica, sans-serif" font-size="9.5" font-weight="400" fill="#1f2933">0.009</text>
<line x1="832.0" y1="539.6" x2="1392.0" y2="539.6" stroke="#d9dee7" stroke-width="1.0" stroke-dasharray="4 4"/>
<text x="824.0" y="543.6" text-anchor="end" font-family="Arial, Helvetica, sans-serif" font-size="9.5" font-weight="400" fill="#1f2933">0.012</text>
<line x1="832.0" y1="509.0" x2="1392.0" y2="509.0" stroke="#d9dee7" stroke-width="1.0" stroke-dasharray="4 4"/>
<text x="824.0" y="513.0" text-anchor="end" font-family="Arial, Helvetica, sans-serif" font-size="9.5" font-weight="400" fill="#1f2933">0.015</text>
<line x1="832.0" y1="662.1" x2="1392.0" y2="662.1" stroke="#3a7fb7" stroke-width="1.4"/>
<line x1="832.0" y1="509.0" x2="832.0" y2="754.0" stroke="#2d3748" stroke-width="1.1"/>
<line x1="832.0" y1="754.0" x2="1392.0" y2="754.0" stroke="#2d3748" stroke-width="1.1"/>
<text x="774.0" y="631.5" text-anchor="middle" font-family="Arial, Helvetica, sans-serif" font-size="11" font-weight="400" fill="#1f2933" transform="rotate(-90.0 774.0 631.5)">Delta CPI</text>
<rect x="846.1" y="662.1" width="18.2" height="20.4" fill="#2a6fbb" stroke="none"/>
<text x="855.2" y="694.5" text-anchor="middle" font-family="Arial, Helvetica, sans-serif" font-size="8.5" font-weight="400" fill="#1f2933">-0.002</text>
<rect x="869.7" y="662.1" width="18.2" height="20.4" fill="#2f9e73" stroke="none"/>
<text x="878.8" y="694.5" text-anchor="middle" font-family="Arial, Helvetica, sans-serif" font-size="8.5" font-weight="400" fill="#1f2933">-0.002</text>
<text x="867.0" y="794.0" text-anchor="end" font-family="Arial, Helvetica, sans-serif" font-size="10" font-weight="400" fill="#1f2933" transform="rotate(-32.0 867.0 794.0)">sha256</text>
<rect x="916.1" y="662.1" width="18.2" height="51.0" fill="#2a6fbb" stroke="none"/>
<text x="925.2" y="725.2" text-anchor="middle" font-family="Arial, Helvetica, sans-serif" font-size="8.5" font-weight="400" fill="#1f2933">-0.005</text>
<rect x="939.7" y="662.1" width="18.2" height="81.7" fill="#2f9e73" stroke="none"/>
<text x="948.8" y="749.0" text-anchor="middle" font-family="Arial, Helvetica, sans-serif" font-size="8.5" font-weight="400" fill="#1f2933">-0.008</text>
<text x="937.0" y="794.0" text-anchor="end" font-family="Arial, Helvetica, sans-serif" font-size="10" font-weight="400" fill="#1f2933" transform="rotate(-32.0 937.0 794.0)">crc32</text>
<rect x="986.1" y="641.7" width="18.2" height="20.4" fill="#2a6fbb" stroke="none"/>
<text x="995.2" y="635.7" text-anchor="middle" font-family="Arial, Helvetica, sans-serif" font-size="8.5" font-weight="400" fill="#1f2933">+0.002</text>
<rect x="1009.7" y="509.0" width="18.2" height="153.1" fill="#2f9e73" stroke="none"/>
<text x="1018.8" y="519.0" text-anchor="middle" font-family="Arial, Helvetica, sans-serif" font-size="8.5" font-weight="400" fill="#1f2933">+0.015</text>
<text x="1007.0" y="794.0" text-anchor="end" font-family="Arial, Helvetica, sans-serif" font-size="10" font-weight="400" fill="#1f2933" transform="rotate(-32.0 1007.0 794.0)">errname</text>
<rect x="1056.1" y="662.1" width="18.2" height="1.0" fill="#2a6fbb" stroke="none"/>
<rect x="1079.7" y="662.1" width="18.2" height="40.8" fill="#2f9e73" stroke="none"/>
<text x="1088.8" y="715.0" text-anchor="middle" font-family="Arial, Helvetica, sans-serif" font-size="8.5" font-weight="400" fill="#1f2933">-0.004</text>
<text x="1077.0" y="794.0" text-anchor="end" font-family="Arial, Helvetica, sans-serif" font-size="10" font-weight="400" fill="#1f2933" transform="rotate(-32.0 1077.0 794.0)">strscpy</text>
<rect x="1126.1" y="662.1" width="18.2" height="20.4" fill="#2a6fbb" stroke="none"/>
<text x="1135.2" y="694.5" text-anchor="middle" font-family="Arial, Helvetica, sans-serif" font-size="8.5" font-weight="400" fill="#1f2933">-0.002</text>
<rect x="1149.7" y="662.1" width="18.2" height="1.0" fill="#2f9e73" stroke="none"/>
<text x="1147.0" y="794.0" text-anchor="end" font-family="Arial, Helvetica, sans-serif" font-size="10" font-weight="400" fill="#1f2933" transform="rotate(-32.0 1147.0 794.0)">size</text>
<rect x="1196.1" y="662.1" width="18.2" height="10.2" fill="#2a6fbb" stroke="none"/>
<rect x="1219.7" y="662.1" width="18.2" height="1.0" fill="#2f9e73" stroke="none"/>
<text x="1217.0" y="794.0" text-anchor="end" font-family="Arial, Helvetica, sans-serif" font-size="10" font-weight="400" fill="#1f2933" transform="rotate(-32.0 1217.0 794.0)">strlcat</text>
<rect x="1266.1" y="662.1" width="18.2" height="1.0" fill="#2a6fbb" stroke="none"/>
<rect x="1289.7" y="662.1" width="18.2" height="1.0" fill="#2f9e73" stroke="none"/>
<text x="1287.0" y="794.0" text-anchor="end" font-family="Arial, Helvetica, sans-serif" font-size="10" font-weight="400" fill="#1f2933" transform="rotate(-32.0 1287.0 794.0)">strlcpy</text>
<rect x="1336.1" y="662.1" width="18.2" height="1.0" fill="#2a6fbb" stroke="none"/>
<rect x="1359.7" y="662.1" width="18.2" height="1.0" fill="#2f9e73" stroke="none"/>
<text x="1357.0" y="794.0" text-anchor="end" font-family="Arial, Helvetica, sans-serif" font-size="10" font-weight="400" fill="#1f2933" transform="rotate(-32.0 1357.0 794.0)">hex_dump</text>
<text x="750.0" y="912.0" text-anchor="middle" font-family="Arial, Helvetica, sans-serif" font-size="12" font-weight="400" fill="#1f2933">Function</text>
</svg>
